<?xml version="1.0" encoding="utf-8"?>
<!-- Generator: Adobe Illustrator 22.0.1, SVG Export Plug-In . SVG Version: 6.00 Build 0)  -->
<svg version="1.1" id="Camada_1" xmlns="http://www.w3.org/2000/svg" xmlns:xlink="http://www.w3.org/1999/xlink" x="0px" y="0px"
	 viewBox="0 0 150 211.8" style="enable-background:new 0 0 150 211.8;" xml:space="preserve">
<style type="text/css">
	.st0{fill:#FFFFFF;}
</style>
<g>
	<g>
		<path class="st0" d="M116.9,7.6h-12.4l12.9,14v6.7H90.8v-7.8h12.9l-12.9-14v-6.7h26.2V7.6L116.9,7.6z M85.5,7.6H73l12.9,14v6.7
			H59.3v-7.8h12.9l-12.9-14v-6.7h26.2L85.5,7.6L85.5,7.6z M54.3,7.9H40.9v12.3h13.4v8.2h-23V-0.3h23V7.9z"/>
	</g>
	<path class="st0" d="M-0.6,41.4L13,194.5l61.3,17l61.4-17l13.7-153.1H-0.6z M121,76.4l-4.5,51h0l-0.1,0.7l0,0.1l-3.2,35.7l-0.3,3.2
		l-38.4,10.7v0l-0.1,0L36,167l-2.6-29.5H42h10.2l1.3,15l20.9,5.6l0,0v0l20.9-5.7l2.2-24.4H74.4v0H53.8h-0.1l-0.4-4.2l-0.9-9.5
		l-0.4-5h22.3v0h24.8l1.7-19.2H74.5h-0.1H29.2h-0.1l-0.4-4.2l-0.9-9.5l-0.4-5h47h0.1h47L121,76.4z"/>
</g>
</svg>
