<?xml version="1.0" encoding="utf-8"?>
<!-- Generator: Adobe Illustrator 22.0.1, SVG Export Plug-In . SVG Version: 6.00 Build 0)  -->
<svg version="1.1" id="Camada_1" xmlns="http://www.w3.org/2000/svg" xmlns:xlink="http://www.w3.org/1999/xlink" x="0px" y="0px"
	 viewBox="0 0 500 500" style="enable-background:new 0 0 500 500;" xml:space="preserve">
<style type="text/css">
	.st0{fill:#163147;}
</style>
<g>
	<g>
		<path class="st0" d="M59.1,230.1c-16.2,0-29.8-6-41.7-17c-11.1-11.1-17-25.6-17-41.7c0-17,6-30.7,17-41.7s25.6-17,41.7-17
			c17,0,30.7,6,41.7,17c11.1,11.1,17,25.6,17,41.7s-6,29.8-17,41.7C89.8,225,75.3,230.1,59.1,230.1z M59.1,275.3
			c17,0,30.7,6,41.7,17c11.1,11.1,17,25.6,17,41.7c0,17-6,30.7-17,41.7c-11.1,11.1-25.6,17-41.7,17s-29.8-6-41.7-17
			c-11.1-11.1-17-25.6-17-41.7s6-29.8,17-41.7C28.4,280.4,42.9,275.3,59.1,275.3z"/>
		<path class="st0" d="M259.3,500.1h-115L209.9-0.7h115L259.3,500.1z"/>
		<path class="st0" d="M435.6,500.1H319.8L385.3-0.7h115L435.6,500.1z"/>
	</g>
</g>
</svg>
