<?xml version="1.0" encoding="utf-8"?>
<!-- Generator: Adobe Illustrator 22.0.1, SVG Export Plug-In . SVG Version: 6.00 Build 0)  -->
<svg version="1.1" id="Camada_1" xmlns="http://www.w3.org/2000/svg" xmlns:xlink="http://www.w3.org/1999/xlink" x="0px" y="0px"
	 viewBox="0 0 150 211.8" style="enable-background:new 0 0 150 211.8;" xml:space="preserve">
<style type="text/css">
	.st0{fill:#FFFFFF;}
</style>
<g>
	<path class="st0" d="M74.7,211.8c-1.1-0.3-2.1-0.6-3.2-0.9c-19.1-5.3-38.3-10.6-57.4-15.9c-0.4-0.1-0.5-0.3-0.5-0.7
		c-0.3-3.8-0.7-7.6-1-11.4c-0.3-3.7-0.7-7.5-1-11.2c-0.3-3.8-0.7-7.5-1-11.3c-0.3-3.3-0.6-6.7-0.9-10c-0.3-3.8-0.7-7.6-1-11.4
		c-0.3-3.3-0.6-6.6-0.9-10c-0.3-3.8-0.7-7.6-1-11.4c-0.3-3.3-0.6-6.7-0.9-10c-0.3-3.8-0.7-7.6-1-11.3c-0.3-3.3-0.6-6.7-0.9-10
		c-0.3-3.8-0.7-7.6-1-11.4c-0.3-3.3-0.6-6.7-0.9-10c-0.3-3.8-0.7-7.6-1-11.3C0.7,50,0.4,46.7,0.1,43.3c0-0.5-0.1-1.1-0.1-1.7
		c50,0,100,0,150,0c-0.1,1.2-0.2,2.3-0.3,3.4c-0.3,3.4-0.6,6.7-0.9,10.1c-0.3,3.8-0.7,7.6-1,11.4c-0.3,3.3-0.6,6.7-0.9,10
		c-0.3,3.8-0.7,7.6-1,11.3c-0.3,3.3-0.6,6.6-0.9,10c-0.3,3.8-0.7,7.6-1,11.4c-0.3,3.3-0.6,6.6-0.9,10c-0.3,3.8-0.7,7.6-1,11.4
		c-0.3,3.3-0.6,6.7-0.9,10c-0.3,3.8-0.7,7.6-1,11.3c-0.3,3.3-0.6,6.7-0.9,10c-0.3,3.8-0.7,7.6-1,11.3c-0.3,3.3-0.6,6.6-0.9,9.9
		c-0.3,3.7-0.7,7.4-1,11.1c0,0.4-0.3,0.5-0.6,0.6c-4.8,1.3-9.5,2.6-14.3,4c-12.8,3.5-25.6,7.1-38.3,10.6c-2.6,0.7-5.2,1.5-7.8,2.2
		c-0.1,0-0.2,0.1-0.3,0.1C75,211.8,74.8,211.8,74.7,211.8z M48.4,91.7c24,0,47.9,0,71.9,0c0.6-6.3,1.1-12.5,1.7-18.7
		c-31.4,0-62.7,0-94.1,0c1.7,18.9,3.4,37.8,5.1,56.8c21.7,0,43.4,0,65.1,0c-0.3,3-0.5,6-0.8,9c-0.4,4.9-0.9,9.9-1.3,14.8
		c0,0.4-0.2,0.6-0.6,0.7c-6.7,1.8-13.3,3.6-20,5.4c-0.3,0.1-0.6,0.1-0.8,0c-6.7-1.8-13.4-3.6-20.2-5.4c-0.3-0.1-0.4-0.2-0.4-0.5
		c-0.3-3.3-0.6-6.6-0.9-9.9c-0.1-1.6-0.3-3.1-0.4-4.7c-6.3,0-12.6,0-18.8,0c0,0.1,0,0.1,0,0.2c0.3,3.3,0.6,6.5,0.9,9.8
		c0.3,3.8,0.7,7.6,1,11.3c0.2,2.5,0.4,5.1,0.7,7.6c0,0.3,0.1,0.6,0.5,0.7c12.6,3.5,25.1,7,37.7,10.4c0.2,0.1,0.5,0.1,0.7,0
		c1.8-0.5,3.6-1,5.4-1.5c10.7-3,21.5-6,32.2-8.9c0.4-0.1,0.5-0.3,0.6-0.7c0.2-2.8,0.5-5.5,0.7-8.3c0.3-3.8,0.7-7.6,1-11.3
		c0.3-3.3,0.6-6.7,0.9-10c0.3-3.8,0.7-7.6,1-11.4c0.3-3.4,0.6-6.7,0.9-10.1c0.2-2,0.4-4,0.5-6c-22.8,0-45.6,0-68.4,0
		C49.6,104.5,49,98.1,48.4,91.7z"/>
	<path class="st0" d="M108.6,0c0,0.2,0,0.4,0,0.6c0,9.1,0,18.1,0,27.2c0,0.2,0,0.4,0,0.7c-3.2,0-6.3,0-9.5,0c0-4.7,0-9.3,0-13.9
		c0,0-0.1,0-0.1,0c-2.2,3.3-4.3,6.7-6.5,10.1c-2.2-3.4-4.4-6.8-6.5-10.1c0,0-0.1,0-0.1,0c0,4.6,0,9.3,0,13.9c-3.1,0-6.2,0-9.3,0
		c0-0.2,0-0.3,0-0.5c0-9.2,0-18.5,0-27.7c0-0.1,0-0.2,0-0.3c3.3,0,6.6,0,10,0c0,0.1,0.1,0.2,0.1,0.2c1.9,3.1,3.8,6.3,5.8,9.4
		c0.1,0.1,0.1,0.2,0.2,0.3c0.6-0.9,1.1-1.8,1.6-2.7c1.5-2.4,3-4.9,4.4-7.3C101.9,0,105.2,0,108.6,0z"/>
	<path class="st0" d="M41.8,0c0,9.4,0,18.8,0,28.2c0,0.1,0,0.2,0,0.4c-3.2,0-6.3,0-9.5,0c0-3.2,0-6.3,0-9.5c-2.9,0-5.8,0-8.7,0
		c0,3.2,0,6.3,0,9.5c-3.2,0-6.4,0-9.6,0c0-0.2,0-0.5,0-0.7c0-9,0-18.1,0-27.1c0-0.2,0-0.5,0-0.7c3.2,0,6.4,0,9.6,0
		c0,0.1,0,0.2,0,0.4c0,2.9,0,5.8,0,8.7c0,0.1,0,0.2,0,0.4c2.9,0,5.8,0,8.7,0c0-3.2,0-6.3,0-9.4C35.4,0,38.6,0,41.8,0z"/>
	<path class="st0" d="M72.2,0c0,3.1,0,6.3,0,9.5c-2.8,0-5.6,0-8.4,0c0,6.4,0,12.7,0,19.1c-3.2,0-6.3,0-9.5,0c0-6.3,0-12.7,0-19.1
		c-2.8,0-5.6,0-8.5,0c0-3.2,0-6.3,0-9.5C54.7,0,63.5,0,72.2,0z"/>
	<path class="st0" d="M122.9,0c0,0.2,0,0.5,0,0.7c0,5.9,0,11.8,0,17.7c0,0.2,0,0.4,0,0.7c4.5,0,8.9,0,13.4,0c0,3.2,0,6.3,0,9.4
		c-7.6,0-15.3,0-22.9,0c0-0.2,0-0.5,0-0.7c0-9.1,0-18.1,0-27.2c0-0.2,0-0.5,0-0.7C116.5,0,119.7,0,122.9,0z"/>
</g>
</svg>
