<?xml version="1.0" encoding="utf-8"?>
<!-- Generator: Adobe Illustrator 22.0.1, SVG Export Plug-In . SVG Version: 6.00 Build 0)  -->
<svg version="1.1" id="Camada_1" xmlns="http://www.w3.org/2000/svg" xmlns:xlink="http://www.w3.org/1999/xlink" x="0px" y="0px"
	 viewBox="0 0 150 211.8" style="enable-background:new 0 0 150 211.8;" xml:space="preserve">
<style type="text/css">
	.st0{fill:#FFFFFF;}
</style>
<g>
	<g>
		<polygon class="st0" points="100.9,7.6 88.5,7.6 101.4,21.6 101.4,28.3 74.8,28.3 74.8,20.5 87.7,20.5 74.8,6.4 74.8,-0.3 
			100.9,-0.3 		"/>
		<path class="st0" d="M70-0.3v28.6h-23v-9.4h13.4V-0.3H70L70-0.3z"/>
	</g>
	<path class="st0" d="M-0.8,41.4l13.7,153.1l61.3,17l61.4-17l13.7-153.1H-0.8z M117.2,115.6l-4.4,49.4l-0.3,3.2l-38.4,10.7v0l-0.1,0
		l-38.5-10.7l-2.6-29.5h8.7h10.2l1.3,15l20.9,5.6l0,0v0l20.9-5.7l2.2-24.4H74v0H38H33l0.5-5l4.4-49.4L39.2,61h35.3h2.1l0,0l0.1,0
		h37.5l0.9,10.7l2.7,29.5H109H98.8l-1.7-19.4l-19.2-1.2h-3.4v0L56.2,81l-2.7,29.5h23.1v0h36h5.1L117.2,115.6z"/>
</g>
</svg>
