<?xml version="1.0" encoding="utf-8"?>
<!-- Generator: Adobe Illustrator 22.0.1, SVG Export Plug-In . SVG Version: 6.00 Build 0)  -->
<svg version="1.1" id="Camada_1" xmlns="http://www.w3.org/2000/svg" xmlns:xlink="http://www.w3.org/1999/xlink" x="0px" y="0px"
	 viewBox="0 0 221 78" style="enable-background:new 0 0 221 78;" xml:space="preserve">
<style type="text/css">
	.st0{fill:#FFFFFF;}
</style>
<g>
	<g>
		<path class="st0" d="M10.8,36.7c-1.9,0-3.5-0.7-4.9-2c-1.3-1.3-2-3-2-4.9c0-2,0.7-3.6,2-4.9c1.3-1.3,3-2,4.9-2c2,0,3.6,0.7,4.9,2
			c1.3,1.3,2,3,2,4.9c0,1.9-0.7,3.5-2,4.9C14.4,36.1,12.7,36.7,10.8,36.7z M10.8,42c2,0,3.6,0.7,4.9,2c1.3,1.3,2,3,2,4.9
			c0,2-0.7,3.6-2,4.9c-1.3,1.3-3,2-4.9,2c-1.9,0-3.5-0.7-4.9-2c-1.3-1.3-2-3-2-4.9c0-1.9,0.7-3.5,2-4.9C7.2,42.6,8.9,42,10.8,42z"/>
		<path class="st0" d="M34.3,68.4H20.8l7.7-58.8H42L34.3,68.4z"/>
		<path class="st0" d="M55,68.4H41.4l7.7-58.8h13.5L55,68.4z"/>
	</g>
	<g>
		<g>
			<path class="st0" d="M83.9,36.8c-1.7,0-3.4-0.3-5-1c-1.6-0.6-3.1-1.6-4.4-2.9c-1.3-1.3-2.2-2.7-2.9-4.3c-0.7-1.6-1-3.3-1-5.1
				c0-1.8,0.3-3.5,1-5.1c0.7-1.6,1.6-3,2.9-4.3c1.3-1.3,2.8-2.3,4.4-2.9c1.6-0.7,3.3-1,5-1c1.7,0,3.4,0.3,5,1s3.1,1.6,4.4,2.9
				l-4.3,4.3c-0.7-0.7-1.5-1.2-2.4-1.6c-0.9-0.4-1.8-0.5-2.7-0.5c-0.9,0-1.8,0.2-2.7,0.5c-0.9,0.4-1.7,0.9-2.4,1.6
				c-0.7,0.7-1.2,1.5-1.6,2.4c-0.4,0.9-0.5,1.8-0.5,2.8c0,1,0.2,1.9,0.5,2.7c0.4,0.9,0.9,1.6,1.6,2.3c0.7,0.7,1.5,1.2,2.4,1.6
				c0.9,0.4,1.8,0.5,2.7,0.5c0.9,0,1.8-0.2,2.7-0.5c0.9-0.4,1.7-0.9,2.4-1.6l4.3,4.4c-1.3,1.3-2.8,2.3-4.4,2.9
				C87.4,36.5,85.7,36.8,83.9,36.8z"/>
			<path class="st0" d="M110.5,36.9l-1.1-3.2H101l-1.1,3.2h-6.5l9.1-26.7h5.8l8.6,26.7H110.5z M103.1,27.5h4.3l-2.1-6.5L103.1,27.5z
				"/>
			<path class="st0" d="M126.9,30c-0.3,0-0.6,0.1-0.9,0.1s-0.6,0-1,0.1v6.7h-6.1V10.3h6.1c1.5,0,3,0.3,4.3,0.8
				c1.3,0.5,2.5,1.2,3.5,2.1c1,0.9,1.8,1.9,2.4,3.1c0.6,1.2,0.9,2.5,0.9,3.8c0,1.4-0.3,2.8-0.9,4c-0.6,1.2-1.5,2.3-2.5,3.2l5.9,9.5
				h-7.2L126.9,30z M124.9,24c0.7,0,1.3-0.1,1.9-0.3c0.6-0.2,1.1-0.5,1.6-0.8c0.4-0.3,0.8-0.7,1.1-1.2c0.3-0.4,0.4-0.9,0.4-1.4
				c0-0.5-0.1-1-0.4-1.4c-0.3-0.4-0.6-0.8-1.1-1.2c-0.4-0.3-1-0.6-1.6-0.8c-0.6-0.2-1.2-0.3-1.9-0.3V24z"/>
			<path class="st0" d="M157,36.9h-15.9V10.1h6.1v20.6h9.8V36.9z"/>
			<path class="st0" d="M171,10.1c1.8,0,3.6,0.4,5.2,1.1c1.6,0.7,3,1.7,4.3,2.9c1.2,1.2,2.2,2.6,2.9,4.2c0.7,1.6,1.1,3.4,1.1,5.2
				c0,1.8-0.4,3.6-1.1,5.2c-0.7,1.6-1.7,3-2.9,4.2c-1.2,1.2-2.6,2.2-4.3,2.9c-1.6,0.7-3.4,1.1-5.2,1.1s-3.6-0.4-5.2-1.1
				c-1.6-0.7-3-1.7-4.2-2.9c-1.2-1.2-2.1-2.6-2.9-4.2c-0.7-1.6-1.1-3.4-1.1-5.2c0-1.8,0.4-3.6,1.1-5.2c0.7-1.6,1.7-3,2.9-4.2
				c1.2-1.2,2.6-2.2,4.2-2.9C167.4,10.5,169.2,10.1,171,10.1z M171,30.7c1,0,1.9-0.2,2.8-0.6c0.9-0.4,1.6-0.9,2.3-1.5
				s1.2-1.4,1.5-2.3c0.4-0.9,0.6-1.8,0.6-2.8c0-1-0.2-1.9-0.6-2.8c-0.4-0.9-0.9-1.6-1.5-2.3c-0.7-0.7-1.4-1.2-2.3-1.5
				c-0.9-0.4-1.8-0.6-2.8-0.6c-1,0-1.9,0.2-2.8,0.6c-0.9,0.4-1.6,0.9-2.3,1.5c-0.7,0.7-1.2,1.4-1.5,2.3c-0.4,0.9-0.6,1.8-0.6,2.8
				c0,1,0.2,1.9,0.6,2.8c0.4,0.9,0.9,1.6,1.5,2.3s1.4,1.2,2.3,1.5C169.1,30.5,170,30.7,171,30.7z"/>
			<path class="st0" d="M194.2,37.4c-0.8,0-1.7-0.1-2.5-0.3c-0.8-0.2-1.6-0.6-2.4-1.1c-1.3-0.8-2.3-1.9-3.1-3.3
				c-0.7-1.3-1.1-2.8-1.1-4.4h6.1c0,0.7,0.2,1.3,0.5,1.7c0.3,0.4,0.6,0.7,0.8,0.8c0.4,0.3,0.9,0.4,1.4,0.5c0.5,0,1-0.1,1.5-0.3
				c0.3-0.1,0.6-0.3,0.8-0.5c0.2-0.2,0.4-0.4,0.5-0.6c0.1-0.2,0.2-0.4,0.2-0.6c0-0.2,0-0.4,0-0.5c0-0.1,0-0.3,0-0.5
				c0-0.2-0.1-0.4-0.2-0.6c-0.1-0.2-0.3-0.4-0.5-0.6c-0.2-0.2-0.5-0.4-0.8-0.6c-0.3-0.1-0.6-0.2-0.9-0.3c-0.3-0.1-0.6-0.2-1-0.3
				c-0.6-0.2-1.2-0.4-1.9-0.7c-0.7-0.2-1.3-0.6-2-1c-0.9-0.5-1.6-1.2-2.1-2c-0.6-0.8-1-1.7-1.3-2.6c-0.3-0.9-0.3-1.9-0.3-2.9
				c0.1-1,0.4-1.9,0.8-2.8c0.4-0.8,1-1.5,1.6-2.1c0.7-0.6,1.4-1.1,2.2-1.4s1.7-0.6,2.6-0.6c0.9-0.1,1.9,0,2.8,0.3
				c0.9,0.2,1.8,0.6,2.5,1c0.7,0.5,1.4,1,1.9,1.7c0.5,0.7,1,1.4,1.2,2.2c0.3,0.8,0.4,1.7,0.4,2.6h-6.1c0-0.6-0.2-0.9-0.5-1.2
				s-0.7-0.4-0.9-0.4c0,0-0.2,0-0.3-0.1c-0.2,0-0.4,0-0.6,0c-0.2,0-0.5,0.1-0.7,0.3c-0.2,0.1-0.4,0.3-0.6,0.6
				c-0.2,0.4-0.2,0.8-0.1,1.2c0.1,0.4,0.4,0.8,0.7,1c0.3,0.2,0.7,0.4,1.1,0.5c0.4,0.2,0.8,0.3,1.3,0.5c0.4,0.1,0.8,0.3,1.3,0.4
				c0.4,0.1,0.9,0.3,1.3,0.5c1.6,0.7,2.8,1.8,3.7,3.2c0.9,1.4,1.4,3,1.4,4.7c0,1.7-0.5,3.3-1.4,4.7c-0.9,1.4-2.2,2.5-3.7,3.2
				c-0.6,0.3-1.3,0.5-1.9,0.6C195.5,37.3,194.8,37.4,194.2,37.4z"/>
		</g>
		<g>
			<path class="st0" d="M86.9,41.6v6.1h-5.1v20.7h-6.1V47.7h-5.1v-6.1H86.9z"/>
			<path class="st0" d="M106.3,47.8h-11v4h8.9V58h-8.9v4.2h11v6.1H89.2V41.7l17.1,0V47.8z"/>
			<path class="st0" d="M115.6,68.4h-6.1V41.7h6.1V68.4z"/>
			<path class="st0" d="M140.8,41.5l-7.9,13l8.6,13.9h-7.2l-4.9-7.9l-4.8,7.9h-7.2l8.3-13.9l-8-13.1h7.2l4.4,7.1l4.3-7.1H140.8z"/>
			<path class="st0" d="M160.1,47.8h-11v4h8.9V58h-8.9v4.2h11v6.1H143V41.7l17.1,0V47.8z"/>
			<path class="st0" d="M169.4,68.4h-6.1V41.7h6.1V68.4z"/>
			<path class="st0" d="M181.1,61.5c-0.3,0-0.6,0.1-0.9,0.1c-0.3,0-0.6,0-1,0.1v6.7h-6.1V41.8h6.1c1.5,0,3,0.3,4.3,0.8
				c1.3,0.5,2.5,1.2,3.5,2.1c1,0.9,1.8,1.9,2.4,3.1c0.6,1.2,0.9,2.5,0.9,3.8c0,1.4-0.3,2.8-0.9,4c-0.6,1.2-1.5,2.3-2.5,3.2l5.9,9.5
				h-7.2L181.1,61.5z M179.2,55.5c0.7,0,1.3-0.1,1.9-0.3c0.6-0.2,1.1-0.5,1.6-0.8c0.4-0.3,0.8-0.7,1.1-1.2c0.3-0.4,0.4-0.9,0.4-1.4
				s-0.1-1-0.4-1.4c-0.3-0.4-0.6-0.8-1.1-1.2c-0.4-0.3-1-0.6-1.6-0.8c-0.6-0.2-1.2-0.3-1.9-0.3V55.5z"/>
			<path class="st0" d="M210.7,68.4l-1.1-3.2h-8.4l-1.1,3.2h-6.5l9.1-26.7h5.8l8.6,26.7H210.7z M203.3,59h4.3l-2.1-6.5L203.3,59z"/>
		</g>
	</g>
</g>
</svg>
