<?xml version="1.0" encoding="utf-8"?>
<!-- Generator: Adobe Illustrator 22.0.1, SVG Export Plug-In . SVG Version: 6.00 Build 0)  -->
<svg version="1.1" id="Camada_1" xmlns="http://www.w3.org/2000/svg" xmlns:xlink="http://www.w3.org/1999/xlink" x="0px" y="0px"
	 viewBox="0 0 224.1 160" style="enable-background:new 0 0 224.1 160;" xml:space="preserve">
<style type="text/css">
	.st0{fill:#FFFFFF;}
</style>
<g>
	<path class="st0" d="M112.1,0c31.7,0,63.3,0,95,0c12.7,0,20.7,11.7,15.5,22.6c-3.1,6.5-8.5,9.4-15.7,9.4c-25.5,0-51,0-76.5,0
		c-37.7,0-75.3,0-113,0C4.8,32-3.1,21,1.2,10.1C3.8,3.6,9.6,0,17.6,0C49.1,0,80.6,0,112.1,0z"/>
	<path class="st0" d="M111.7,96c-31.5,0-63,0-94.5,0C4.7,96-3.3,84.8,1.3,73.9C4.3,67.1,9.8,64,17.2,64c24.2,0,48.3,0,72.5,0
		c39.2,0,78.3,0,117.5,0c12.4,0,20.3,11.5,15.5,22.3c-3,6.8-8.6,9.7-16,9.7C175,96,143.3,96,111.7,96z"/>
	<path class="st0" d="M112.6,128c31.5,0,63,0,94.5,0c12.2,0,20.1,10.9,15.9,21.7c-2.3,5.9-6.9,9.2-13.2,10.2c-1,0.1-2,0.1-3,0.1
		c-63.2,0-126.3,0-189.5,0C7.2,160,0,153.2,0.1,143.9c0.1-9.3,7.2-15.8,17.5-15.8C49.3,128,80.9,128,112.6,128z"/>
</g>
</svg>
