<?xml version="1.0" encoding="utf-8"?>
<!-- Generator: Adobe Illustrator 22.0.1, SVG Export Plug-In . SVG Version: 6.00 Build 0)  -->
<svg version="1.1" id="Camada_1" xmlns="http://www.w3.org/2000/svg" xmlns:xlink="http://www.w3.org/1999/xlink" x="0px" y="0px"
	 viewBox="0 0 150 211.8" style="enable-background:new 0 0 150 211.8;" xml:space="preserve">
<style type="text/css">
	.st0{fill:#FFFFFF;}
</style>
<g>
	<path class="st0" d="M71.9,168.5c-23.6-20.1-36-43.5-33.7-73.7C40.3,65.8,53.4,42.4,75,24.4c4.2,5,8.6,10.5,13.3,15.8
		c25.5,29.4,33.1,72.1,13.4,104.1c-4.3,7-10.3,13-15.7,19.3c-1.6,1.8-4,2.9-6.7,4.7c-1-28.2-2-55.3-3-82.5c-0.8,0-1.5,0-2.3,0
		C71.1,112.7,72.4,139.8,71.9,168.5z"/>
	<path class="st0" d="M77.5,188.3c-4.4-7-3.9-16.1,0-16.8C77.5,177.1,77.5,182.7,77.5,188.3z"/>
</g>
</svg>
