<?xml version="1.0" encoding="utf-8"?>
<!-- Generator: Adobe Illustrator 22.0.1, SVG Export Plug-In . SVG Version: 6.00 Build 0)  -->
<svg version="1.1" id="Camada_1" xmlns="http://www.w3.org/2000/svg" xmlns:xlink="http://www.w3.org/1999/xlink" x="0px" y="0px"
	 viewBox="0 0 150 211.8" style="enable-background:new 0 0 150 211.8;" xml:space="preserve">
<style type="text/css">
	.st0{fill:#FFFFFF;}
</style>
<g>
	<path class="st0" d="M45.1,175.8c3.6-1.7,6.8-3.4,10.1-4.7c0.7-0.3,2,0.2,2.8,0.7c4.4,2.6,8.8,5.2,13.1,7.9c1.7,1.1,3.2,1.1,5,0.1
		c19.9-11.6,39.9-23.1,59.8-34.8c1-0.6,2-2.3,2.1-3.6c0.1-23.4,0.1-46.7,0-70.1c0-1.2-1-2.9-2.1-3.5C116,56.1,96,44.6,76,33.1
		c-1.8-1-3.2-0.9-4.9,0.1C51.3,44.6,31.5,56.1,11.7,67.5c-1.8,1-2.4,2.3-2.4,4.3c0.1,23.1,0,46.2,0,69.2c0,1.8,0.4,3.1,2,4
		c5.4,3,10.6,6.2,16,9.2c3.1,1.7,6.5,2.7,10,1.3c3.1-1.3,5.1-3.5,5.4-7c0.1-1.7,0.2-3.4,0.2-5.1c0-21.2,0-42.4,0-63.6
		c0-4.8,0.1-4.8,4.7-4.8c6.1,0,6.1,0,6,6c0,22.9,0.1,45.8-0.1,68.7c-0.1,11.9-8.2,18.1-19.8,17.1c-3.7-0.3-7.4-1.5-10.8-3.1
		c-6.3-3.1-12.4-6.8-18.5-10.5c-3.7-2.3-5.5-5.8-5.5-10.3c0-23.8,0.1-47.7,0-71.5c0-5.7,2.4-9.7,7.3-12.5
		C24.5,48.2,42.8,37.6,61.1,27c1.6-0.9,3.1-1.7,4.7-2.7c5.4-3.5,10.7-3.2,16.2,0.1c19.6,11.5,39.2,22.9,58.9,34.1
		c5.6,3.2,8.1,7.8,8.1,14.1c-0.1,22.8-0.1,45.6,0,68.4c0,6-2.5,10.4-7.8,13.4c-19.5,11.2-39,22.5-58.4,33.9
		c-5.8,3.4-11.3,3.7-17.1,0.1c-6.1-3.8-12.3-7.4-18.5-11C46.5,176.9,46,176.4,45.1,175.8z"/>
	<path class="st0" d="M91.7,73.1c5.7-0.1,11.7,0.5,17.5,3c7.1,3.1,10.7,8.7,11.9,16.1c0.5,3.3-0.1,3.9-3.3,3.9c-0.1,0-0.2,0-0.3,0
		c-4.2,0.5-7.3,0-8.5-5.2c-0.9-3.9-4.5-5.7-8.2-6.6c-6.3-1.5-12.7-1.6-19.1,0c-1.6,0.4-3.2,1.2-4.6,2.1c-2.3,1.6-3.1,4-2.9,6.7
		c0.2,2.7,2,4.4,4.4,4.9c5.3,1.2,10.7,2,16.1,3.1c5.8,1.1,11.7,2,17.4,3.6c5.7,1.6,10.3,5,11.2,11.5c1.1,7.6-0.3,14.3-6.8,19.3
		c-5.3,4.1-11.6,5.5-18,6c-7.3,0.5-14.6,0.4-21.6-1.7c-7.7-2.3-13.7-6.5-15.7-14.7c-0.4-1.6-0.8-3.4-0.7-5c0.1-0.8,1.2-2.2,2-2.3
		c2.2-0.3,4.5-0.3,6.8,0c0.8,0.1,2,1,2.1,1.7c1.2,7.9,6.5,10.8,13.7,11.5c6.5,0.6,13,1,19.4-0.8c1.8-0.5,3.8-1.5,5.2-2.7
		c4.5-4.1,3.4-10.7-2.3-12.4c-5.6-1.7-11.6-2.3-17.4-3.4c-5.5-1.1-11.2-1.8-16.6-3.5c-6.6-2-10.3-6.8-10.7-13.8
		c-0.3-6.4,1.7-11.9,7.2-15.8C76.2,73.8,83.6,72.9,91.7,73.1z"/>
</g>
</svg>
