<?xml version="1.0" encoding="utf-8"?>
<!-- Generator: Adobe Illustrator 22.0.1, SVG Export Plug-In . SVG Version: 6.00 Build 0)  -->
<svg version="1.1" id="Camada_1" xmlns="http://www.w3.org/2000/svg" xmlns:xlink="http://www.w3.org/1999/xlink" x="0px" y="0px"
	 viewBox="0 0 150 211.8" style="enable-background:new 0 0 150 211.8;" xml:space="preserve">
<style type="text/css">
	.st0{fill:#FFFFFF;}
</style>
<path class="st0" d="M124.6,115.1c-4.9,0-9.1,1.2-12.7,3c-1.3-2.6-2.6-4.9-2.8-6.6c-0.2-2-0.5-3.2-0.2-5.5c0.3-2.4,1.7-5.7,1.7-6
	c0-0.2-0.3-1.4-3.1-1.5c-2.8,0-5.3,0.5-5.5,1.3c-0.3,0.7-0.8,2.4-1.2,4.2c-0.5,2.6-5.6,11.7-8.6,16.5c-1-1.9-1.8-3.5-1.9-4.8
	c-0.2-2-0.5-3.2-0.2-5.5c0.3-2.4,1.7-5.7,1.7-6c0-0.2-0.3-1.4-3.1-1.5s-5.3,0.5-5.5,1.3s-0.6,2.5-1.2,4.2
	c-0.6,1.7-7.4,16.9-9.2,20.9c-0.9,2-1.7,3.6-2.3,4.7c-0.6,1.1,0,0.1-0.1,0.2c-0.5,0.9-0.8,1.4-0.8,1.4v0c-0.4,0.7-0.8,1.3-1,1.3
	c-0.1,0-0.4-1.8,0.1-4.3c1-5.3,3.5-13.5,3.4-13.8c0-0.1,0.5-1.6-1.6-2.3c-2-0.7-2.7,0.5-2.9,0.5s-0.3,0.4-0.3,0.4s2.2-9.3-4.2-9.3
	c-4,0-9.6,4.4-12.4,8.4c-1.8,1-5.5,3-9.4,5.1c-1.5,0.8-3.1,1.7-4.5,2.5l-0.3-0.3c-7.8-8.3-22.3-14.2-21.7-25.5
	c0.2-4.1,1.6-14.8,27.8-27.8C63.9,59.7,81,62.6,84,69.1c4.2,9.3-9.2,26.6-31.4,29.1c-8.5,1-12.9-2.3-14.1-3.6
	c-1.2-1.3-1.3-1.3-1.8-1.1c-0.7,0.4-0.3,1.5,0,2.2c0.7,1.7,3.4,4.8,8,6.3c4.1,1.3,14,2.1,26.1-2.6c13.5-5.2,24-19.7,20.9-31.8
	c-3.1-12.3-23.6-16.4-42.9-9.5c-11.5,4.1-24,10.5-33,18.9C5.2,87,3.5,95.7,4.2,99.3c2.5,12.9,20.2,21.3,27.3,27.5
	c-0.4,0.2-0.7,0.4-1,0.5c-3.6,1.8-17.1,8.8-20.5,16.3c-3.8,8.5,0.6,14.6,3.6,15.4c9.1,2.5,18.5-2,23.5-9.5c5-7.5,4.4-17.3,2.1-21.7
	l-0.1-0.2L42,126c1.8-1.1,3.6-2.1,5.1-2.9c-0.9,2.4-1.5,5.2-1.8,9.3c-0.4,4.8,1.6,11,4.2,13.5c1.1,1.1,2.5,1.1,3.4,1.1
	c3,0,4.4-2.5,5.9-5.5c1.9-3.6,3.5-7.8,3.5-7.8s-2.1,11.4,3.6,11.4c2.1,0,4.1-2.7,5-4v0c0,0,0.1-0.1,0.2-0.3c0.2-0.3,0.3-0.5,0.3-0.5
	v-0.1c0.8-1.4,2.7-4.7,5.4-10.1c3.5-6.9,6.9-15.6,6.9-15.6s0.3,2.1,1.3,5.6c0.6,2.1,1.9,4.3,2.9,6.6c-0.8,1.1-1.3,1.8-1.3,1.8l0,0
	c-0.7,0.9-1.4,1.8-2.2,2.7c-2.8,3.3-6.1,7.1-6.6,8.2c-0.5,1.3-0.4,2.2,0.6,3c0.7,0.5,2.1,0.7,3.4,0.5c2.5-0.2,4.3-0.8,5.1-1.2
	c1.4-0.5,2.9-1.2,4.4-2.3c2.7-2,4.4-4.9,4.2-8.7c-0.1-2.1-0.8-4.2-1.6-6.2c0.2-0.4,0.5-0.7,0.7-1.1c4.3-6.3,7.7-13.3,7.7-13.3
	s0.3,2.1,1.3,5.6c0.5,1.8,1.6,3.7,2.5,5.6c-4,3.3-6.6,7.1-7.5,9.7c-1.6,4.6-0.4,6.8,2,7.2c1.1,0.2,2.6-0.3,3.7-0.8
	c1.4-0.5,3.1-1.3,4.7-2.4c2.7-2,5.4-4.8,5.2-8.6c-0.1-1.8-0.5-3.5-1.2-5.1c3.4-1.4,7.9-2.2,13.6-1.6c12.2,1.4,14.6,9,14.1,12.2
	c-0.5,3.2-3,4.9-3.9,5.5c-0.8,0.5-1.1,0.7-1,1.1c0.1,0.6,0.5,0.5,1.2,0.4c1-0.2,6.4-2.6,6.6-8.4C144.4,123.2,137.3,115,124.6,115.1
	L124.6,115.1z M30.8,146.8c-4,4.4-9.7,6.1-12.1,4.6c-2.6-1.5-1.6-8,3.4-12.7c3-2.8,6.9-5.5,9.5-7.1c0.6-0.4,1.4-0.9,2.5-1.5
	c0.2-0.1,0.3-0.2,0.3-0.2c0.2-0.1,0.4-0.2,0.6-0.4C36.7,136.3,35,142.1,30.8,146.8L30.8,146.8z M60.2,126.8
	c-1.4,3.4-4.3,12.2-6.1,11.7c-1.5-0.4-2.5-7.1-0.3-13.6c1.1-3.3,3.4-7.2,4.8-8.8c2.2-2.5,4.6-3.3,5.2-2.3
	C64.5,115.1,61,124.6,60.2,126.8z M84.4,138.4c-0.6,0.3-1.1,0.5-1.4,0.4c-0.2-0.1,0.2-0.5,0.2-0.5s3-3.3,4.2-4.8
	c0.7-0.9,1.5-1.9,2.4-3v0.3C89.9,134.7,86.1,137.3,84.4,138.4z M103.1,134.1c-0.4-0.3-0.4-1.3,1.1-4.5c0.6-1.3,1.9-3.4,4.2-5.4
	c0.3,0.8,0.4,1.6,0.4,2.4C108.8,131.5,105.3,133.3,103.1,134.1z"/>
</svg>
